<svg
                    width="22"
                    height="22"
                    viewBox="0 0 22 22"
                    fill="none"
                    xmlns="http://www.w3.org/2000/svg"
                  >
                    <path
                      d="M9.55 2.00012C5.698 2.00712 3.68 2.10212 2.391 3.39012C1 4.78312 1 7.02212 1 11.5001C1 15.9781 1 18.2171 2.391 19.6091C3.783 21.0001 6.021 21.0001 10.501 21.0001C14.979 21.0001 17.218 21.0001 18.609 19.6091C19.899 18.3191 19.993 16.3021 20 12.4491"
                      stroke="white"
                      stroke-width="1.5"
                      stroke-linecap="round"
                      stroke-linejoin="round"
                    />
                    <path
                      d="M10.0558 12.0001C9.33178 2.86615 15.8018 0.276149 20.9798 1.16415C21.1888 4.19115 19.7068 5.32415 16.8868 5.84815C17.4318 6.41815 18.3938 7.13415 18.2898 8.02815C18.2158 8.66615 17.7838 8.97815 16.9178 9.60415C15.0218 10.9741 12.8258 11.8381 10.0558 12.0001Z"
                      stroke="white"
                      stroke-width="1.5"
                      stroke-linecap="round"
                      stroke-linejoin="round"
                    />
                    <path
                      d="M8 16.0001C10 10.5001 11.96 8.63612 14 7.00012"
                      stroke="white"
                      stroke-width="1.5"
                      stroke-linecap="round"
                      stroke-linejoin="round"
                    />
                  </svg>